<?xml version="1.0" encoding="utf-8"?>
<!-- Generator: Adobe Illustrator 27.1.1, SVG Export Plug-In . SVG Version: 6.00 Build 0)  -->
<svg version="1.1" id="Layer_1" xmlns="http://www.w3.org/2000/svg" xmlns:xlink="http://www.w3.org/1999/xlink" x="0px" y="0px"
	 viewBox="0 0 214.28 216" style="enable-background:new 0 0 214.28 216;" xml:space="preserve">
<style type="text/css">
	.st0{fill:#FFFFFF;}
</style>
<g>
	<path class="st0" d="M165.38,168.83c3.82,1.79,8.36,2.94,11.49,5.62c4.18,3.57,10.05,8.34,10.04,12.59
		c-0.01,4.25-5.51,10.57-10.1,12.32c-12.85,4.9-26.24,9.32-39.84,11.4c-34.25,5.24-68.54,4.52-102.09-5.01
		c-7.3-2.07-14.47-5.5-20.78-9.62c-7.85-5.11-7.82-12.26-0.34-17.93c5.01-3.79,10.92-6.46,16.62-9.74
		c-3.3-8.06-7.67-16.12-9.86-24.71c-3.45-13.52-5.72-27.36-7.79-41.16c-0.42-2.82,1.35-7.12,3.64-8.94
		c7.25-5.79,43.24-11.17,53.38-7.44c-2.5,0.35-5.02,0.63-7.5,1.08c-11.14,2.02-22.32,3.82-33.34,6.32
		c-2.51,0.57-4.43,3.59-6.62,5.49c2.24,1.86,4.2,4.76,6.77,5.4c9.47,2.36,19.05,4.67,28.74,5.74c30.95,3.41,61.88,3.06,92.65-2.14
		c3.79-0.64,7.72-1.39,11.15-2.98c3.21-1.49,5.83-4.16,8.71-6.32c-3.02-2.07-5.77-5.2-9.12-6c-9.74-2.31-19.71-3.73-29.6-5.4
		c-3.62-0.61-7.28-0.95-12.25-1.58c1.92-1.45,2.53-2.28,3.01-2.22c16.58,2.19,33.18,4.24,49.7,6.81c8.35,1.3,12.53,6.18,10.81,14.86
		c-0.42,2.13-0.06,4.41-0.06,4.95c7.21,3.66,14.22,5.88,19.38,10.17c6.87,5.72,6.74,16.05,1.02,24.81
		c-6.92,10.6-16.92,16.68-29.97,17.45C168.98,162.92,165.37,163.2,165.38,168.83z M89.12,176.9c14.02,0,25.56-0.47,37.05,0.09
		c29.5,1.46,31.32-9.16,30.11-30.7c-0.55-9.76-7.04-16.25-17.13-16.77c-6.42-0.33-12.88-0.16-19.32-0.08
		c-15.51,0.18-21.18,5.65-21.52,20.89C98.1,159.32,98.65,168.46,89.12,176.9z M154.21,186.69c-39.43,14.05-76.51,14.5-114.33-1.93
		c0.1,7.61,6.67,9.9,12.69,11.95c20.11,6.85,41,7.55,61.85,5.18c10.59-1.2,21.04-4.35,31.24-7.55
		C149.02,193.3,151.39,189.33,154.21,186.69z M66.12,147.58c-2.17-3-4.43-6.14-6.7-9.27c-2.75,2.77-5.5,5.54-7.88,7.95
		c-2.23-8.76-2.23-8.76-9.98-6.58c1.91,7.69,3.62,15.47,5.9,23.08c0.46,1.55,3.06,3.48,4.64,3.46c1.51-0.02,3.47-2.11,4.37-3.74
		c1.16-2.1,1.46-4.65,2.67-8.89c1.05,4.61,1.23,7.2,2.27,9.41c0.69,1.44,2.57,3.16,4.01,3.25c1.55,0.09,4.31-1.28,4.66-2.52
		c2.29-8.06,4.07-16.25,6.16-25c-3.21,0-5.4,0-7.93,0C67.52,141.91,66.76,145,66.12,147.58z M181.03,122.85
		c-2.85,10.22-5.57,19.98-8.31,29.81c11.47,0.15,21.8-7.4,22.59-16.32C196.03,128.23,191.89,124.16,181.03,122.85z M50.58,121.55
		c0.23,4.97,0.41,9.09,0.7,15.31c2.2-3,3.06-4.17,3.93-5.35c1.82,1.23,3.63,2.46,4.5,3.05c0.84-3.39,1.29-6.02,2.17-8.51
		c1.53-4.33,0.01-7.09-4.53-7.46c-5.25-0.43-10.56-0.1-15.54-0.1c0,5.96,0,11.05,0,16.14c0.63,0.05,1.25,0.1,1.88,0.15
		c0.91-3.93,1.81-7.85,2.97-12.84C46.5,121.94,48.17,121.78,50.58,121.55z M80.09,146.44c0,5.51-0.18,10.66,0.14,15.79
		c0.07,1.17,2.25,3.34,2.81,3.16c1.52-0.49,3.63-1.85,3.84-3.11c0.59-3.62,0.16-7.39,0.49-11.07
		C87.82,146.21,85.42,145.06,80.09,146.44z M85.47,134.59c-3.25-1.95-5.03-3.01-5.24-3.14c0-3.78,0-6.22,0-9.43
		c0.44-0.24,2.15-1.18,5.54-3.04c-4.65,0-7.21,0-9.9,0c0,5.46,0,10.32,0,15.6C78.69,134.59,81.12,134.59,85.47,134.59z
		 M72.99,120.63c0.01-0.55,0.02-1.1,0.02-1.64c-2.6-0.17-5.21-0.33-8.17-0.52c0,5.81,0,10.88,0,16.57
		c3.06-0.19,5.58-0.34,10.24-0.62c-3.93-2.01-5.72-2.92-5.8-2.97c-0.43-4.21-0.68-6.76-0.95-9.38
		C69.75,121.63,71.37,121.13,72.99,120.63z M82.44,144.5c1.04,0.56,2.07,1.11,3.11,1.67c0.71-1.8,2.26-3.78,1.89-5.33
		c-0.37-1.55-2.52-3.38-4.18-3.71c-1.07-0.21-3.58,1.93-3.77,3.24C79.33,141.59,81.37,143.11,82.44,144.5z"/>
	<path class="st0" d="M161.62,29.54c-2.77,2.73-5.26,5.19-8.06,7.96C115.2,7.34,77.12,7.31,38.34,37.49
		c-2.62-2.73-5.17-5.4-7.69-8.03C61.46-5.73,128.91-5.94,161.62,29.54z"/>
	<path class="st0" d="M142.71,47.43c-2.79,2.68-5.3,5.1-8.16,7.84c-25.73-19.74-51.35-19.88-77.29,0.26
		c-2.74-2.66-5.42-5.26-8.04-7.81C70.21,22.31,120.01,22,142.71,47.43z"/>
	<path class="st0" d="M123.73,65.13c-0.52,0.71-0.98,1.59-1.66,2.25c-1.99,1.93-4.07,3.77-6.4,5.9c-13.04-9.69-26.12-9.5-39.86,0.33
		c-2.23-2.95-4.5-5.95-6.86-9.07C80.76,49.92,109.51,49.64,123.73,65.13z"/>
	<path class="st0" d="M106.19,93.75c-0.48,5.56-5.35,9.63-11.16,8.9c-5.96-0.75-9.09-4.36-9.03-10.15c0.05-5.43,5.26-9.88,10.7-9.5
		C102.17,83.4,106.65,88.48,106.19,93.75z"/>
	<path class="st0" d="M116.69,157.58c-0.25,2.25,0.05,3.97-0.67,5.04c-0.9,1.34-2.75,3.09-3.98,2.95c-1.31-0.15-3.35-2.25-3.41-3.57
		c-0.33-7.42-0.16-14.85-0.16-23.5c7.42,0,14.25-0.14,21.06,0.14c1.18,0.05,2.28,1.89,3.41,2.9c-1.31,1.07-2.48,2.76-3.95,3.07
		c-2.46,0.51-5.29-0.41-7.63,0.3c-2.16,0.65-3.88,2.64-5.8,4.04c0.47,0.88,0.94,1.76,1.41,2.65c3.8,0,7.61-0.18,11.38,0.12
		c1.08,0.09,3.04,1.89,2.88,2.35c-0.46,1.33-1.68,3.23-2.8,3.37C124.88,157.85,121.26,157.58,116.69,157.58z"/>
	<path class="st0" d="M136.01,155.97c2.11-3.98,3.68-9.37,5.18-9.35c6.91,0.1,3.55,5.91,3.6,9.13c0.05,3.33-1.96,6.69-3.07,10.04
		C139.88,162.62,138.05,159.47,136.01,155.97z"/>
</g>
</svg>
